<svg width="278" height="128" viewBox="0 0 278 128" fill="none" xmlns="http://www.w3.org/2000/svg">
<rect x="33" y="20" width="218" height="97" fill="black"/>
<rect x="27.5" y="13.5" width="215" height="94" fill="#161616" stroke="white" stroke-width="3"/>
<path d="M55.9656 41.6112H62.2152L71.6904 68.5248L70.7832 68.172L77.94 49.776L80.4096 57.084L70.5312 79.7136L55.9656 41.6112ZM73.7064 41.6112H79.0488L89.4312 68.0712L88.3728 67.8696L97.2432 41.6112H102.989L88.6752 79.6128L73.7064 41.6112ZM114.176 78.504C111.723 78.504 109.623 78.0336 107.876 77.0928C106.129 76.1184 104.785 74.7912 103.844 73.1112C102.903 71.3976 102.433 69.4488 102.433 67.2648C102.433 65.1816 102.954 63.3 103.995 61.62C105.07 59.9064 106.498 58.5456 108.279 57.5376C110.094 56.5296 112.093 56.0256 114.277 56.0256C117.099 56.0256 119.434 56.8488 121.282 58.4952C123.164 60.1416 124.424 62.4432 125.062 65.4L107.876 71.3472L106.666 68.3232L120.426 63.384L119.367 64.0392C118.964 62.9976 118.326 62.0904 117.452 61.3176C116.578 60.5112 115.386 60.108 113.874 60.108C112.664 60.108 111.572 60.4104 110.598 61.0152C109.657 61.5864 108.901 62.3928 108.33 63.4344C107.792 64.4424 107.523 65.6352 107.523 67.0128C107.523 68.424 107.809 69.6672 108.38 70.7424C108.985 71.784 109.791 72.6072 110.799 73.212C111.841 73.8168 113 74.1192 114.277 74.1192C115.184 74.1192 116.041 73.9512 116.847 73.6152C117.687 73.2792 118.477 72.8592 119.216 72.3552L121.585 76.1856C120.476 76.8912 119.266 77.4624 117.956 77.8992C116.679 78.3024 115.419 78.504 114.176 78.504ZM143.929 78.504C142.014 78.504 140.334 78.1176 138.889 77.3448C137.478 76.5384 136.336 75.5304 135.462 74.3208L136.017 72.8592V78H130.825V38.8392H135.966V61.4688L135.865 59.604C136.672 58.5288 137.848 57.6552 139.393 56.9832C140.939 56.3112 142.669 55.9752 144.585 55.9752C146.466 55.9752 148.18 56.4288 149.725 57.336C151.305 58.2432 152.548 59.5368 153.455 61.2168C154.396 62.8632 154.866 64.8288 154.866 67.1136C154.866 69.4656 154.362 71.4984 153.354 73.212C152.346 74.9256 151.002 76.236 149.322 77.1432C147.676 78.0504 145.878 78.504 143.929 78.504ZM142.821 74.1192C144.097 74.1192 145.24 73.8168 146.248 73.212C147.289 72.6072 148.113 71.7672 148.717 70.692C149.322 69.6168 149.625 68.4072 149.625 67.0632C149.625 65.7528 149.322 64.5768 148.717 63.5352C148.113 62.4936 147.289 61.6704 146.248 61.0656C145.24 60.4272 144.097 60.108 142.821 60.108C141.712 60.108 140.687 60.3096 139.746 60.7128C138.805 61.116 138.016 61.6704 137.377 62.376C136.739 63.0816 136.285 63.9048 136.017 64.8456V69.3312C136.285 70.272 136.739 71.112 137.377 71.8512C138.016 72.5568 138.789 73.1112 139.696 73.5144C140.637 73.9176 141.678 74.1192 142.821 74.1192ZM160.996 56.8824H166.188V78H160.996V56.8824ZM160.694 49.3224C160.694 48.516 161.013 47.844 161.652 47.3064C162.29 46.7688 162.979 46.5 163.718 46.5C164.491 46.5 165.18 46.7688 165.784 47.3064C166.389 47.844 166.692 48.516 166.692 49.3224C166.692 50.1288 166.389 50.8008 165.784 51.3384C165.18 51.8424 164.491 52.0944 163.718 52.0944C162.979 52.0944 162.29 51.8424 161.652 51.3384C161.013 50.8008 160.694 50.1288 160.694 49.3224ZM175.853 78V61.4688H172.274V56.8824H175.853V48.3144C175.853 45.2904 176.575 42.9552 178.02 41.3088C179.465 39.6624 181.565 38.8392 184.32 38.8392C185.059 38.8392 185.882 38.9568 186.789 39.192C187.697 39.3936 188.503 39.7296 189.209 40.2L187.041 43.98C186.739 43.644 186.386 43.4088 185.983 43.2744C185.613 43.14 185.227 43.0728 184.824 43.0728C183.648 43.0728 182.724 43.476 182.052 44.2824C181.38 45.0888 181.044 46.4664 181.044 48.4152V56.8824H187.697V61.4688H181.044V78H175.853ZM195.54 88.1304L209.501 56.8824H214.239L200.631 88.1304H195.54ZM200.883 78.1512L190.651 56.8824H196.498L204.864 75.5304L200.883 78.1512Z" fill="white"/>
</svg>
